<svg width="28" height="25" viewBox="0 0 28 25" fill="none" xmlns="http://www.w3.org/2000/svg">
<g clip-path="url(#clip0_211_421)">
<path d="M22.6155 25H5.38453C2.41227 24.9963 0.00328125 22.6667 0 19.7918V5.2082C0.00382813 2.33327 2.41227 0.00370276 5.38453 0H22.6155C25.5877 0.00370276 27.9967 2.33327 28 5.2082V19.7913C27.9962 22.6662 25.5877 24.9963 22.6155 24.9995V25ZM5.38453 2.08307C3.60008 2.08307 2.15359 3.48218 2.15359 5.2082V19.7913C2.15359 21.5173 3.60008 22.9164 5.38453 22.9164H22.6155C24.3999 22.9164 25.8464 21.5173 25.8464 19.7913V5.2082C25.8464 3.48218 24.3999 2.08307 22.6155 2.08307H5.38453Z" fill="white"/>
<path d="M26.9232 8.33333H1.0768C0.481797 8.33333 0 7.86679 0 7.2918V5.20873C0.00382813 2.33327 2.41227 0.00370276 5.38453 0H22.6155C25.5877 0.00370276 27.9967 2.33327 28 5.2082V7.29127C28 7.86679 27.5177 8.3328 26.9232 8.3328V8.33333ZM2.15359 6.24974H25.8459V5.2082C25.8459 3.48218 24.3994 2.08307 22.6149 2.08307H5.38453C3.60008 2.08307 2.15359 3.48218 2.15359 5.2082V6.24974Z" fill="white"/>
<path d="M5.38453 5.2082C5.97923 5.2082 6.46133 4.74189 6.46133 4.16667C6.46133 3.59144 5.97923 3.12513 5.38453 3.12513C4.78983 3.12513 4.30774 3.59144 4.30774 4.16667C4.30774 4.74189 4.78983 5.2082 5.38453 5.2082Z" fill="white"/>
<path d="M8.61547 5.2082C9.21017 5.2082 9.69227 4.74189 9.69227 4.16667C9.69227 3.59144 9.21017 3.12513 8.61547 3.12513C8.02077 3.12513 7.53867 3.59144 7.53867 4.16667C7.53867 4.74189 8.02077 5.2082 8.61547 5.2082Z" fill="white"/>
<path d="M11.8464 5.2082C12.4411 5.2082 12.9232 4.74189 12.9232 4.16667C12.9232 3.59144 12.4411 3.12513 11.8464 3.12513C11.2517 3.12513 10.7696 3.59144 10.7696 4.16667C10.7696 4.74189 11.2517 5.2082 11.8464 5.2082Z" fill="white"/>
</g>
<defs>
<clipPath id="clip0_211_421">
<rect width="28" height="25" fill="white"/>
</clipPath>
</defs>
</svg>
