<?xml version="1.0" encoding="UTF-8"?>
<svg id="Layer_1" xmlns="http://www.w3.org/2000/svg" version="1.1" viewBox="0 0 512 512">
  <!-- Generator: Adobe Illustrator 29.4.0, SVG Export Plug-In . SVG Version: 2.1.0 Build 73)  -->
  <defs>
    <style>
      .st0 {
        fill: #fff;
      }
    </style>
  </defs>
  <path class="st0" d="M182,379.5h-87.8c-7.3,0-13.2-5.9-13.2-13.2s5.9-13.2,13.2-13.2h87.8c7.3,0,13.2,5.9,13.2,13.2s-5.9,13.2-13.2,13.2Z"/>
  <path class="st0" d="M424.9,379.5h-237.1c-6.6,0-12.2-4.9-13.1-11.4L133.8,60.6c-.5-3.8.6-7.6,3.1-10.4s6.1-4.5,9.9-4.5h237.1c6.6,0,12.2,4.9,13.1,11.4l40.9,307.4c.5,3.8-.6,7.6-3.1,10.4s-6.1,4.5-9.9,4.5Z"/>
  <path class="st0" d="M187.8,397c-3.3,0-6.4-.6-9.4-1.6l8.1,60.4c.9,6.6,6.5,11.4,13,11.4s1.2,0,1.8-.1c7.2-1,12.3-7.6,11.3-14.8l-7.4-55.3h-17.4Z"/>
  <path class="st0" d="M424.9,397h-9.2l7.9,58.8c.9,6.6,6.5,11.4,13,11.4s1.2,0,1.8-.1c7.2-1,12.3-7.6,11.3-14.8l-8.1-60.4c-5,3.2-10.7,5.1-16.7,5.1Z"/>
  <path class="st0" d="M123.4,115.6l-59.8,336.2c-1.3,7.2,3.5,14,10.7,15.3.8.1,1.5.2,2.3.2,6.3,0,11.8-4.5,12.9-10.9l45.3-254.8-11.5-86.1Z"/>
</svg>