<svg width="28" height="28" viewBox="0 0 28 28" fill="none" xmlns="http://www.w3.org/2000/svg">
<g clip-path="url(#clip0_211_441)">
<path d="M14 0C6.27977 0 0 6.27977 0 14C0 21.7202 6.27977 28 14 28C21.7202 28 28 21.7191 28 14C28 6.28086 21.7191 0 14 0ZM14 26.88C6.89719 26.88 1.12 21.1017 1.12 14C1.12 6.89828 6.89719 1.12 14 1.12C21.1028 1.12 26.88 6.89828 26.88 14C26.88 21.1017 21.1017 26.88 14 26.88Z" fill="white"/>
<path d="M19.6 12.32H14.7426L16.7787 5.19367C16.8514 4.93609 16.7327 4.66156 16.4932 4.53961C16.2537 4.41984 15.9622 4.48492 15.7976 4.69656L7.95757 14.7766C7.82632 14.9445 7.8028 15.1741 7.89687 15.3655C7.99093 15.558 8.18562 15.6805 8.39999 15.6805H13.2573L11.2213 22.8058C11.1475 23.0645 11.2673 23.339 11.5068 23.4598C11.5861 23.5003 11.6736 23.5205 11.7589 23.5205C11.9279 23.5205 12.0925 23.4445 12.2013 23.3034L20.0413 13.2234C20.1726 13.0555 20.1972 12.827 20.1031 12.6345C20.0091 12.442 19.8144 12.3211 19.6 12.3211V12.32Z" fill="white"/>
</g>
<defs>
<clipPath id="clip0_211_441">
<rect width="28" height="28" fill="white"/>
</clipPath>
</defs>
</svg>
