<svg width="28" height="29" viewBox="0 0 28 29" fill="none" xmlns="http://www.w3.org/2000/svg">
<path fill-rule="evenodd" clip-rule="evenodd" d="M10 1V14.83L5.54 11L4.65 10.24C4.44 10.06 4.2 9.98 3.92 10C3.64 10.02 3.42 10.14 3.24 10.35C3.06 10.56 2.98 10.8 3 11.08C3.02 11.36 3.14 11.58 3.35 11.76L10.33 17.75C10.52 17.92 10.74 18.01 11 18.01C11.26 18.01 11.48 17.92 11.67 17.75L18.65 11.76C18.86 11.58 18.98 11.35 19 11.08C19.02 10.8 18.94 10.56 18.76 10.35C18.58 10.14 18.35 10.02 18.08 10C17.8 9.98 17.56 10.06 17.35 10.24L16.46 11L12 14.83V1C12 0.72 11.9 0.49 11.71 0.29C11.51 0.09 11.28 0 11 0C10.72 0 10.49 0.1 10.29 0.29C10.09 0.49 10 0.72 10 1ZM14.06 21C14.26 19.49 14.92 18.18 16.05 17.05C17.42 15.68 19.07 15 21 15C22.93 15 24.58 15.68 25.95 17.05C27.32 18.42 28 20.07 28 22C28 23.93 27.32 25.58 25.95 26.95C24.58 28.32 22.93 29 21 29C19.07 29 17.42 28.32 16.05 26.95C14.93 25.83 14.26 24.51 14.06 23H3C1 23 0 22 0 20V18C0 17.72 0.1 17.49 0.29 17.29C0.49 17.09 0.72 17 1 17C1.28 17 1.51 17.1 1.71 17.29C1.91 17.49 2 17.72 2 18V20C2 20.67 2.33 21 3 21H14.07H14.06ZM16 22C16 23.38 16.49 24.56 17.46 25.54C18.43 26.52 19.61 27 21 27C22.39 27 23.56 26.51 24.54 25.54C25.52 24.57 26 23.39 26 22C26 20.61 25.51 19.44 24.54 18.46C23.57 17.48 22.39 17 21 17C19.61 17 18.44 17.49 17.46 18.46C16.48 19.43 16 20.61 16 22ZM18.29 23.54L19.7 22.13L18.29 20.72C18.09 20.52 18 20.29 18 20.01C18 19.73 18.1 19.5 18.29 19.3C18.48 19.1 18.72 19.01 19 19.01C19.28 19.01 19.51 19.11 19.71 19.3L21.12 20.71L22.53 19.3C22.73 19.1 22.96 19.01 23.24 19.01C23.52 19.01 23.75 19.11 23.95 19.3C24.15 19.49 24.24 19.73 24.24 20.01C24.24 20.29 24.14 20.52 23.95 20.72L22.54 22.13L23.95 23.54C24.15 23.74 24.24 23.97 24.24 24.25C24.24 24.53 24.14 24.76 23.95 24.96C23.76 25.16 23.52 25.25 23.24 25.25C22.96 25.25 22.73 25.15 22.53 24.96L21.12 23.55L19.71 24.96C19.51 25.16 19.28 25.25 19 25.25C18.72 25.25 18.49 25.15 18.29 24.96C18.09 24.76 18 24.53 18 24.25C18 23.97 18.1 23.74 18.29 23.54Z" fill="white"/>
</svg>
