<svg width="28" height="28" viewBox="0 0 28 28" fill="none" xmlns="http://www.w3.org/2000/svg">
<g clip-path="url(#clip0_211_432)">
<path d="M13.9997 26.2126C7.25466 26.2126 1.78681 20.7449 1.78681 14C1.78681 7.25512 7.25466 1.78739 13.9997 1.78739C20.7447 1.78739 26.2126 7.25512 26.2126 14C26.2126 14.4934 26.6129 14.8937 27.1063 14.8937C27.5997 14.8937 27.9994 14.4934 27.9994 14C28 6.26837 21.7315 0 13.9997 0C6.26788 0 0 6.26837 0 14C0 21.7316 6.26788 28 13.9997 28C14.4931 28 14.8934 27.5997 14.8934 27.1063C14.8934 26.6129 14.4931 26.2126 13.9997 26.2126Z" fill="white"/>
<path d="M13.1066 4.46786V14.2973H8.0422C7.54944 14.2973 7.14911 14.6976 7.14911 15.191C7.14911 15.6844 7.54944 16.0853 8.0422 16.0853H14.0003C14.4937 16.0853 14.894 15.685 14.894 15.191V4.46786C14.894 3.97449 14.4937 3.57417 14.0003 3.57417C13.5069 3.57417 13.1066 3.97449 13.1066 4.46786Z" fill="white"/>
<path d="M21.1488 14.2973C17.3647 14.2973 14.2976 17.3643 14.2976 21.1483C14.2976 24.9323 17.3647 27.9994 21.1488 27.9994C24.9329 27.9994 28 24.9323 28 21.1483C28 17.3643 24.9329 14.2973 21.1488 14.2973ZM21.2319 24.1998C20.9346 24.5938 20.3731 24.6719 19.9797 24.374L17.2473 22.3081C16.8545 22.0108 16.7764 21.45 17.0743 21.0565C17.3716 20.6631 17.9324 20.585 18.3259 20.8823L20.3457 22.4092L23.1929 18.6421C23.4902 18.2486 24.051 18.1706 24.4445 18.4679C24.838 18.7651 24.916 19.326 24.6181 19.72L21.2319 24.1998Z" fill="white"/>
</g>
<defs>
<clipPath id="clip0_211_432">
<rect width="28" height="28" fill="white"/>
</clipPath>
</defs>
</svg>
