<svg xmlns="http://www.w3.org/2000/svg" width="27" height="28" viewBox="0 0 27 28" fill="none">
  <g clip-path="url(#clip0_362_193)">
    <path d="M24.5839 5.32141H23.1483C23.1483 5.32141 23.1429 5.32382 23.1429 5.32684V23.6428C23.1429 24.7078 24.0065 25.5714 25.0714 25.5714C26.1364 25.5714 27 24.7078 27 23.6428V7.73755C27 6.40322 25.9182 5.32141 24.5839 5.32141Z" fill="white"/>
    <path d="M21.2143 23.6429V2.91071C21.2143 1.5794 20.1349 0.5 18.8036 0.5H2.41071C1.0794 0.5 0 1.5794 0 2.91071V24.125C0 25.9891 1.51092 27.5 3.375 27.5H24.0378C24.0758 27.5 24.1065 27.4699 24.1071 27.4319C24.1071 27.4319 24.1071 27.4313 24.1071 27.4307C24.1071 27.3994 24.086 27.3722 24.0559 27.3644C22.3793 26.9046 21.2161 25.3816 21.2143 23.6429ZM3.85714 6.28571C3.85714 5.75295 4.28866 5.32143 4.82143 5.32143H8.67857C9.21134 5.32143 9.64286 5.75295 9.64286 6.28571V10.1429C9.64286 10.6756 9.21134 11.1071 8.67857 11.1071H4.82143C4.28866 11.1071 3.85714 10.6756 3.85714 10.1429V6.28571ZM16.3929 22.6786H4.84855C4.32964 22.6786 3.88426 22.2796 3.85835 21.7607C3.83243 21.2285 4.24346 20.7765 4.77502 20.7512C4.79069 20.7506 4.80576 20.75 4.82143 20.75H16.3657C16.8846 20.75 17.33 21.149 17.3559 21.6679C17.3819 22.2 16.9708 22.6521 16.4393 22.6774C16.4236 22.678 16.4085 22.6786 16.3929 22.6786ZM16.3929 18.8214H4.84855C4.32964 18.8214 3.88426 18.4225 3.85835 17.9035C3.83243 17.3714 4.24346 16.9194 4.77502 16.8941C4.79069 16.8935 4.80576 16.8929 4.82143 16.8929H16.3657C16.8846 16.8929 17.33 17.2918 17.3559 17.8107C17.3819 18.3429 16.9708 18.7949 16.4393 18.8202C16.4236 18.8208 16.4085 18.8214 16.3929 18.8214ZM16.3929 14.9643H4.84855C4.32964 14.9643 3.88426 14.5653 3.85835 14.0464C3.83243 13.5142 4.24346 13.0622 4.77502 13.0369C4.79069 13.0363 4.80576 13.0357 4.82143 13.0357H16.3657C16.8846 13.0357 17.33 13.4347 17.3559 13.9536C17.3819 14.4858 16.9708 14.9378 16.4393 14.9631C16.4236 14.9637 16.4085 14.9643 16.3929 14.9643ZM16.3929 11.1071H12.5628C12.0439 11.1071 11.5985 10.7082 11.5726 10.1893C11.5467 9.6571 11.9577 9.20509 12.4893 9.17978C12.505 9.17917 12.52 9.17857 12.5357 9.17857H16.3657C16.8846 9.17857 17.33 9.57754 17.3559 10.0965C17.3819 10.6286 16.9708 11.0806 16.4393 11.1059C16.4236 11.1065 16.4085 11.1071 16.3929 11.1071ZM16.3929 7.25H12.5628C12.0439 7.25 11.5985 6.85103 11.5726 6.33212C11.5467 5.79996 11.9577 5.34795 12.4893 5.32263C12.505 5.32203 12.52 5.32143 12.5357 5.32143H16.3657C16.8846 5.32143 17.33 5.7204 17.3559 6.23931C17.3819 6.77147 16.9708 7.22348 16.4393 7.2488C16.4236 7.2494 16.4085 7.25 16.3929 7.25Z" fill="white"/>
  </g>
  <defs>
    <clipPath id="clip0_362_193">
      <rect width="27" height="27" fill="white" transform="translate(0 0.5)"/>
    </clipPath>
  </defs>
</svg>