<svg xmlns="http://www.w3.org/2000/svg" width="21" height="27" viewBox="0 0 21 27" fill="none">
  <g clip-path="url(#clip0_362_235)">
    <path d="M19.7743 5.37994H3.95453C3.51789 5.37994 3.16351 5.73432 3.16351 6.17096V26.2095C3.16351 26.6461 3.51789 27.0005 3.95453 27.0005H19.7743C20.211 27.0005 20.5653 26.6461 20.5653 26.2095V6.17096C20.5653 5.73432 20.211 5.37994 19.7743 5.37994ZM9.75531 10.6529H9.95517L9.81385 10.5115C9.50482 10.2025 9.50482 9.70205 9.81385 9.39303C10.1229 9.08401 10.6233 9.08401 10.9323 9.39303L11.0737 9.53436V9.33449C11.0737 8.89785 11.428 8.54348 11.8647 8.54348C12.3013 8.54348 12.6557 8.89785 12.6557 9.33449V9.53436L12.797 9.39303C13.1061 9.08401 13.6065 9.08401 13.9155 9.39303C14.2245 9.70205 14.2245 10.2025 13.9155 10.5115L13.7742 10.6529H13.9741C14.4107 10.6529 14.7651 11.0072 14.7651 11.4439C14.7651 11.8805 14.4107 12.2349 13.9741 12.2349H13.7742L13.9155 12.3762C14.2245 12.6852 14.2245 13.1857 13.9155 13.4947C13.761 13.6492 13.5585 13.7262 13.356 13.7262C13.1535 13.7262 12.951 13.6492 12.7965 13.4947L12.6552 13.3534V13.5532C12.6552 13.9899 12.3008 14.3443 11.8642 14.3443C11.4275 14.3443 11.0731 13.9899 11.0731 13.5532V13.3534L10.9318 13.4947C10.7773 13.6492 10.5748 13.7262 10.3723 13.7262C10.1698 13.7262 9.9673 13.6492 9.81279 13.4947C9.50377 13.1857 9.50377 12.6852 9.81279 12.3762L9.95412 12.2349H9.75426C9.31761 12.2349 8.96324 11.8805 8.96324 11.4439C8.96324 11.0072 9.31709 10.6529 9.75426 10.6529H9.75531ZM16.6103 23.8359H7.11859C6.68195 23.8359 6.32758 23.4815 6.32758 23.0449C6.32758 22.6083 6.68195 22.2539 7.11859 22.2539H16.6103C17.0469 22.2539 17.4013 22.6083 17.4013 23.0449C17.4013 23.4815 17.0469 23.8359 16.6103 23.8359ZM16.6103 20.6719H7.11859C6.68195 20.6719 6.32758 20.3175 6.32758 19.8808C6.32758 19.4442 6.68195 19.0898 7.11859 19.0898H16.6103C17.0469 19.0898 17.4013 19.4442 17.4013 19.8808C17.4013 20.3175 17.0469 20.6719 16.6103 20.6719ZM16.6103 17.5083H7.11859C6.68195 17.5083 6.32758 17.1539 6.32758 16.7173C6.32758 16.2807 6.68195 15.9263 7.11859 15.9263H16.6103C17.0469 15.9263 17.4013 16.2807 17.4013 16.7173C17.4013 17.1539 17.0469 17.5083 16.6103 17.5083Z" fill="white"/>
    <path d="M16.3767 0H0.791016C0.354375 0 0 0.354375 0 0.791016V21.8848C0 22.3214 0.354375 22.6758 0.791016 22.6758H1.58203V6.17098C1.58203 5.04773 2.36672 4.10537 3.41613 3.86068C3.43723 3.85172 11.8737 1.34051 16.3767 0.000527344V0Z" fill="white"/>
    <path d="M17.9049 3.79793L17.9154 1.2129C17.9207 1.20499 17.9249 1.19655 17.9297 1.18811L9.15363 3.79793H17.9044H17.9049Z" fill="white"/>
  </g>
  <defs>
    <clipPath id="clip0_362_235">
      <rect width="20.5654" height="27" fill="white"/>
    </clipPath>
  </defs>
</svg>