<svg xmlns="http://www.w3.org/2000/svg" width="26" height="28" viewBox="0 0 26 28" fill="none">
  <g clip-path="url(#clip0_362_247)">
    <path fill-rule="evenodd" clip-rule="evenodd" d="M15.3349 21.319V26.6859H19.9686C20.1933 26.6859 20.3756 26.8683 20.3756 27.093C20.3756 27.3176 20.1933 27.5 19.9686 27.5H5.65996C5.43528 27.5 5.25292 27.3176 5.25292 27.093C5.25292 26.8683 5.43528 26.6859 5.65996 26.6859H10.2936V21.319H15.3344H15.3349ZM0 3.81218H4.20712V2.33274H1.96896L2.46555 0.655759C2.49323 0.561869 2.57626 0.5 2.67395 0.5H6.55489C6.65258 0.5 6.73562 0.561869 6.7633 0.655759L7.25988 2.33274H5.02173V3.81218H12.4081V2.33274H10.1699L10.6665 0.655759C10.6936 0.561869 10.7761 0.5 10.8738 0.5H14.7548C14.8524 0.5 14.9355 0.561869 14.9632 0.655759L15.4597 2.33274H13.2216V3.81218H20.6079V2.33274H18.3698L18.8664 0.655759C18.894 0.561869 18.9771 0.5 19.0748 0.5H22.9557C23.0534 0.5 23.1364 0.561869 23.1641 0.655759L23.6607 2.33274H21.4225V3.81218H25.6296V18.6407H0V3.81218ZM17.7272 19.4548C17.7082 20.0355 17.2274 20.505 16.6423 20.505H8.98625C8.40121 20.505 7.92036 20.0361 7.90137 19.4548H17.7272Z" fill="white"/>
  </g>
  <defs>
    <clipPath id="clip0_362_247">
      <rect width="25.6286" height="27" fill="white" transform="translate(0 0.5)"/>
    </clipPath>
  </defs>
</svg>