<svg xmlns="http://www.w3.org/2000/svg" width="21" height="28" viewBox="0 0 21 28" fill="none">
  <g clip-path="url(#clip0_362_255)">
    <path d="M2.88683 20.75H17.3626C17.8953 20.75 18.3275 21.1821 18.3275 21.7149V22.1964C18.3275 22.7292 17.8959 23.1607 17.3632 23.1607H2.88743C2.35467 23.1607 1.92255 22.7286 1.92255 22.1958V21.7143C1.92255 21.1815 2.35406 20.75 2.88683 20.75Z" fill="white"/>
    <path d="M2.88683 0.5H17.3626C17.8953 0.5 18.3275 0.932121 18.3275 1.46489V1.94643C18.3275 2.4792 17.8959 2.91071 17.3632 2.91071H2.88743C2.35467 2.91071 1.92255 2.47859 1.92255 1.94583V1.46429C1.92255 0.931518 2.35406 0.5 2.88683 0.5Z" fill="white"/>
    <path d="M19.7751 26.5357H18.26L17.0534 24.125H13.8206L15.0272 26.5357H5.23247L6.43903 24.125H3.20627L1.9997 26.5357H0.474926C0.208542 26.5399 -0.00360104 26.7593 1.50313e-05 27.0251C0.00423378 27.2854 0.213966 27.4958 0.474926 27.5H19.7751C20.0415 27.4958 20.2542 27.277 20.25 27.0106C20.2464 26.7497 20.0355 26.5393 19.7751 26.5357Z" fill="white"/>
    <path d="M2.88742 19.7857H17.3626V3.875H2.88742V19.7857ZM6.42876 6.54607C9.44938 3.18433 15.1387 5.38411 15.114 9.90179C15.1001 12.6506 12.8738 14.8757 10.125 14.8871C5.83814 14.9161 3.53048 9.69205 6.42876 6.54607ZM5.61816 15.8514H14.6312C14.8976 15.8587 15.1073 16.0804 15.1001 16.3468C15.0929 16.603 14.8874 16.8091 14.6312 16.8157H5.61816C5.35177 16.8109 5.13963 16.5915 5.14445 16.3251C5.14867 16.0654 5.3584 15.8556 5.61816 15.8514ZM5.61816 17.78H14.6312C14.8976 17.7842 15.1097 18.0036 15.1061 18.27C15.1019 18.5303 14.8922 18.7407 14.6312 18.7443H5.61816C5.35177 18.7395 5.13963 18.5201 5.14445 18.2537C5.14867 17.9939 5.3584 17.7842 5.61816 17.78Z" fill="white"/>
    <path d="M10.125 13.9277C12.3423 13.9138 14.1358 12.1191 14.1491 9.9018C13.9466 4.56689 6.29378 4.57051 6.10092 9.9018C6.10333 12.1233 7.90353 13.9241 10.125 13.9277ZM11.5335 12.3897C10.6867 12.3734 10.6831 10.8468 11.5335 10.8323C12.3899 10.8486 12.3857 12.3716 11.5335 12.3897ZM11.1429 7.17288C11.2809 6.94506 11.5775 6.87274 11.8053 7.01076C12.0259 7.14455 12.1024 7.42901 11.9776 7.65502L9.10648 12.6307C8.96907 12.8585 8.67255 12.9321 8.44474 12.7947C8.22295 12.6609 8.14641 12.3758 8.27177 12.1486L11.1429 7.17288ZM8.71594 7.41395C9.56271 7.43022 9.56632 8.9568 8.71594 8.97127C7.85954 8.955 7.86376 7.43203 8.71594 7.41395Z" fill="white"/>
  </g>
  <defs>
    <clipPath id="clip0_362_255">
      <rect width="20.25" height="27" fill="white" transform="translate(0 0.5)"/>
    </clipPath>
  </defs>
</svg>