<?xml version="1.0" encoding="UTF-8"?>
<svg xmlns="http://www.w3.org/2000/svg" version="1.1" viewBox="0 0 512 512">
  <defs>
    <style>
      .cls-1 {
        fill: #fff;
      }
    </style>
  </defs>
  <!-- Generator: Adobe Illustrator 28.6.0, SVG Export Plug-In . SVG Version: 1.2.0 Build 709)  -->
  <g>
    <g id="Solid">
      <path class="cls-1" d="M394,40c0-21-17-38-38-38h-220c-21,0-38,17-38,38v42h296v-42Z"/>
      <path class="cls-1" d="M460.2,241.7l-45.4-115.7-48.6,125c-5.4,15.5-8.2,31.8-8.2,48.2v172.8c0,21,17,38,38,38h36c21,0,38-17,38-38h0v-172.8c0-19.6-3.3-39-9.8-57.5Z"/>
      <path class="cls-1" d="M330,299.2c0-19.6,3.3-39,9.8-57.5l51.2-131.7H92.3l-40.5,115.7c-6.5,18.5-9.8,37.9-9.8,57.5v180.8c0,25.4,20.6,46,46,46h254.1c-7.9-11.1-12.1-24.4-12.1-38v-172.8Z"/>
    </g>
  </g>
</svg>