<svg xmlns="http://www.w3.org/2000/svg" width="22" height="28" viewBox="0 0 22 28" fill="none">
  <g clip-path="url(#clip0_362_242)">
    <path d="M21.041 3.61133H20.25V23.5977C20.25 24.906 19.1853 25.9707 17.877 25.9707H3.16406V26.709C3.16406 27.1456 3.51844 27.5 3.95508 27.5H21.041C21.4777 27.5 21.832 27.1456 21.832 26.709V4.40234C21.832 3.9657 21.4777 3.61133 21.041 3.61133Z" fill="white"/>
    <path d="M18.668 23.5977V1.29102C18.668 0.854375 18.3136 0.5 17.877 0.5H0.791016C0.354375 0.5 0 0.854375 0 1.29102V23.5977C0 24.0343 0.354375 24.3887 0.791016 24.3887H17.877C18.3136 24.3887 18.668 24.0343 18.668 23.5977ZM6.9082 3.66406H14.7129C15.7586 3.70203 15.7628 5.20654 14.7129 5.24609H6.9082C5.86195 5.20813 5.85826 3.70361 6.9082 3.66406ZM15.4955 13.1035C15.4955 13.5402 15.1411 13.8945 14.7045 13.8945H3.96352C3.52688 13.8945 3.1725 13.5402 3.1725 13.1035C3.1725 12.6669 3.52688 12.3125 3.96352 12.3125H14.7039C15.1406 12.3125 15.4949 12.6669 15.4949 13.1035H15.4955ZM6.76055 9.14844H11.9079C12.9547 9.18641 12.9568 10.6914 11.9079 10.7305H6.76055C6.32391 10.7305 5.96953 10.3761 5.96953 9.93945C5.96953 9.50281 6.32391 9.14844 6.76055 9.14844ZM3.95508 3.66406C4.39066 3.66406 4.74609 4.01949 4.74609 4.45508C4.70549 5.50291 3.20414 5.50238 3.16406 4.45508C3.16406 4.01949 3.51949 3.66406 3.95508 3.66406ZM3.1725 16.2676C3.1725 15.8309 3.52688 15.4766 3.96352 15.4766H14.7039C15.1406 15.4766 15.4949 15.8309 15.4949 16.2676C15.4949 16.7042 15.1406 17.0586 14.7039 17.0586H3.96352C3.52688 17.0586 3.1725 16.7042 3.1725 16.2676ZM14.7129 21.2246H12.2344C11.1871 21.1861 11.186 19.6816 12.2344 19.6426H14.7129C15.7602 19.6811 15.7612 21.1856 14.7129 21.2246Z" fill="white"/>
  </g>
  <defs>
    <clipPath id="clip0_362_242">
      <rect width="21.832" height="27" fill="white" transform="translate(0 0.5)"/>
    </clipPath>
  </defs>
</svg>