<svg xmlns="http://www.w3.org/2000/svg" width="23" height="28" viewBox="0 0 23 28" fill="none">
  <g clip-path="url(#clip0_362_207)">
    <path d="M21.311 4.73615H17.4637C17.0462 2.33885 14.7639 0.5 12.0184 0.5C11.539 0.5 11.1509 0.853848 11.1509 1.29102V4.73615H0.867548C0.388083 4.73615 0 5.09053 0 5.52717V26.709C0 27.1462 0.388083 27.5 0.867548 27.5H21.311C21.7899 27.5 22.1786 27.1462 22.1786 26.709V5.52717C22.1786 5.09053 21.7905 4.73615 21.311 4.73615ZM5.51413 8.97283H11.1509V10.5549H5.51413C5.03467 10.5549 4.64659 10.2005 4.64659 9.76385C4.64659 9.32721 5.03467 8.97283 5.51413 8.97283ZM15.6957 23.2638H5.51413C5.03467 23.2638 4.64659 22.9095 4.64659 22.4728V14C4.64659 13.5628 5.03467 13.209 5.51413 13.209H11.1509V18.2362C11.1509 18.6733 11.539 19.0272 12.0184 19.0272C14.1017 19.0272 15.7969 20.5728 15.7969 22.4728C15.7969 22.7449 15.761 23.0097 15.6951 23.2638H15.6957ZM15.7969 18.8146C15.0092 18.1375 14.0028 17.6687 12.886 17.5074V5.53455C12.886 5.53455 12.886 5.5298 12.886 5.52717C12.886 5.52453 12.886 5.52242 12.886 5.51979V2.17379C14.5528 2.53238 15.7969 3.89979 15.7969 5.52717V18.8146ZM20.4435 25.918H16.03C16.9611 25.0178 17.5326 23.8049 17.5326 22.4728V6.31818H20.4441V25.918H20.4435Z" fill="white"/>
  </g>
  <defs>
    <clipPath id="clip0_362_207">
      <rect width="22.1786" height="27" fill="white" transform="translate(0 0.5)"/>
    </clipPath>
  </defs>
</svg>